<svg xmlns="http://www.w3.org/2000/svg" viewBox="0 0 93.44 93.44"><defs><style>.cls-1{fill:#424242;}</style></defs><title>общие</title><g id="Layer_2" data-name="Layer 2"><g id="glavnye"><path class="cls-1" d="M93.14,41.53a3,3,0,0,0-3-2.3,10.31,10.31,0,0,1-7.06-17.95,2.6,2.6,0,0,0,.28-3.53A46.29,46.29,0,0,0,76,10.28a2.6,2.6,0,0,0-3.55.29,10.76,10.76,0,0,1-11.65,2.61A10.37,10.37,0,0,1,54.45,3,2.6,2.6,0,0,0,52.16.31a47.44,47.44,0,0,0-10.52,0A2.61,2.61,0,0,0,39.33,3a10.4,10.4,0,0,1-6.4,10,10.79,10.79,0,0,1-11.56-2.64A2.6,2.6,0,0,0,17.84,10a46,46,0,0,0-7.55,7.47A2.59,2.59,0,0,0,10.56,21a10.33,10.33,0,0,1,2.62,11.65A10.8,10.8,0,0,1,3,39a2.55,2.55,0,0,0-2.7,2.29,47.23,47.23,0,0,0,0,10.63c.15,1.32,1.73,2.3,3.07,2.3A10.23,10.23,0,0,1,13,60.61a10.4,10.4,0,0,1-2.61,11.55,2.6,2.6,0,0,0-.29,3.52,46.69,46.69,0,0,0,7.39,7.48A2.61,2.61,0,0,0,21,82.88a10.73,10.73,0,0,1,11.65-2.62A10.35,10.35,0,0,1,39,90.4a2.6,2.6,0,0,0,2.29,2.73,48.38,48.38,0,0,0,5.38.31,46.43,46.43,0,0,0,5.13-.29,2.58,2.58,0,0,0,2.31-2.67,10.38,10.38,0,0,1,6.4-10,10.79,10.79,0,0,1,11.57,2.63,2.61,2.61,0,0,0,3.52.29A46.06,46.06,0,0,0,83.15,76a2.59,2.59,0,0,0-.28-3.55,10.36,10.36,0,0,1-2.62-11.65,10.47,10.47,0,0,1,9.56-6.34l.58,0a2.6,2.6,0,0,0,2.73-2.29A46.09,46.09,0,0,0,93.14,41.53ZM46.72,73.65A26.93,26.93,0,1,1,69.84,60.53L58.05,48.74a16.59,16.59,0,0,0,1.3-6.45A16.52,16.52,0,0,0,38.49,26.36a1.89,1.89,0,0,0-1.3,1.3,1.87,1.87,0,0,0,.52,1.79l7.77,7.81a1.19,1.19,0,0,1,.18.87l0,.13a36.75,36.75,0,0,1-.89,5.7l-.12.12a.8.8,0,0,0-.13.13,37.41,37.41,0,0,1-5.79.9h0l-.09,0h-.1a1.21,1.21,0,0,1-.89-.38L30,37.16a1.91,1.91,0,0,0-1.36-.6A1.87,1.87,0,0,0,26.9,38a16.57,16.57,0,0,0,4.27,16,16.5,16.5,0,0,0,18.12,3.53L61.21,69.42A26.83,26.83,0,0,1,46.72,73.65Z"/></g></g></svg>