<svg xmlns="http://www.w3.org/2000/svg" viewBox="0 0 91.55 76.29"><defs><style>.cls-1{fill:#424242;}</style></defs><title>доп</title><g id="Layer_2" data-name="Layer 2"><g id="glavnye"><path class="cls-1" d="M89.94,42.73l-16-38.11A9.17,9.17,0,0,0,66.47,0H56.05L58,20.67H71.71L45.77,42.18,19.84,20.67H33.57L35.5,0H25.08a9.17,9.17,0,0,0-7.46,4.62l-16,38.11A18.63,18.63,0,0,0,.15,52.45L3.61,71.19a6.32,6.32,0,0,0,6,5.1H81.94a6.32,6.32,0,0,0,6-5.1L91.4,52.45A18.63,18.63,0,0,0,89.94,42.73ZM83,56.08l-1.32,7.64a6.21,6.21,0,0,1-5.87,5.34H15.73a6.21,6.21,0,0,1-5.87-5.34L8.54,56.08A4.49,4.49,0,0,1,13,50.75H78.57A4.49,4.49,0,0,1,83,56.08Z"/></g></g></svg>